<svg xmlns="http://www.w3.org/2000/svg" width="64" height="64" viewBox="0 0 64 64">
    <g fill="none" fill-rule="evenodd">
        <g>
            <g>
                <g>
                    <g fill-rule="nonzero">
                        <path fill="#BBC3EE" d="M64 32c0 17.673-14.327 32-32 32-9.317 0-17.703-3.981-23.55-10.335-1.537-1.668-2.896-3.5-4.054-5.466C1.603 43.447 0 37.91 0 32 0 14.327 14.327 0 32 0c5.912 0 11.448 1.603 16.199 4.398 1.965 1.156 3.796 2.515 5.464 4.053C60.018 14.296 64 22.683 64 32z" transform="translate(-48 -363) translate(30 345) translate(18 18)"/>
                        <path fill="#DDE2FD" d="M64 32c0 17.275-13.687 31.352-30.809 31.978C16.07 63.352 2.382 49.275 2.382 32 2.382 14.725 16.07.648 33.192.022 50.312.648 64 14.725 64 32z" transform="translate(-48 -363) translate(30 345) translate(18 18)"/>
                        <path fill="#D0D8FF" d="M56.866 32c0 13.733-11.133 24.866-24.866 24.866-4.783 0-9.25-1.35-13.042-3.691-1.652-1.019-3.175-2.227-4.541-3.593-1.004-1.003-1.924-2.094-2.745-3.258-1.132-1.602-2.079-3.345-2.809-5.196-1.081-2.736-1.69-5.711-1.726-8.822-.003-.102-.003-.204-.003-.306C7.134 18.267 18.266 7.134 32 7.134c.102 0 .205 0 .307.003 3.111.036 6.085.646 8.821 1.726 1.851.732 3.594 1.677 5.196 2.809 1.164.822 2.253 1.74 3.258 2.745 1.366 1.365 2.574 2.89 3.593 4.541 2.34 3.792 3.691 8.259 3.691 13.042z" transform="translate(-48 -363) translate(30 345) translate(18 18)"/>
                        <path fill="#BBC3EE" d="M56.865 32c0 13.733-11.133 24.866-24.866 24.866-.471 0-.939-.013-1.404-.04C43.675 56.1 54.055 45.262 54.055 32c0-13.261-10.38-24.1-23.46-24.827.465-.026.933-.039 1.404-.039 13.733 0 24.866 11.133 24.866 24.866z" transform="translate(-48 -363) translate(30 345) translate(18 18)"/>
                    </g>
                    <path fill="#BBC3EE" d="M29.867 43.733L18.581 49.666 20.737 37.1 11.606 28.2 24.224 26.367 29.867 14.933 35.509 26.367 48.127 28.2 38.997 37.1 41.152 49.666z" transform="translate(-48 -363) translate(30 345) translate(18 18)"/>
                    <path fill="#DDE2FD" d="M32 42.667L20.715 48.6 22.87 36.033 13.74 27.134 26.357 25.3 32 13.867 37.643 25.3 50.26 27.134 41.13 36.033 43.285 48.6z" transform="translate(-48 -363) translate(30 345) translate(18 18)"/>
                </g>
            </g>
        </g>
    </g>
</svg>
