<svg xmlns="http://www.w3.org/2000/svg" width="50" height="50" viewBox="0 0 50 50">
    <g fill="none" fill-rule="evenodd">
        <g>
            <g>
                <g>
                    <g>
                        <g fill-rule="nonzero">
                            <path fill="#22020A" d="M50 25c0 13.807-11.193 25-25 25-7.279 0-13.83-3.11-18.399-8.074-1.2-1.304-2.262-2.735-3.166-4.27C1.252 33.942 0 29.616 0 25 0 11.193 11.193 0 25 0c4.618 0 8.944 1.252 12.655 3.436 1.536.903 2.966 1.965 4.27 3.166C46.888 11.168 50 17.722 50 25z" transform="translate(-155 -482) translate(30 482) translate(102) translate(23)"/>
                            <path fill="#E7335F" d="M49.805 24.983c0 13.496-10.692 24.494-24.069 24.982-13.376-.488-24.07-11.486-24.07-24.982C1.667 11.487 12.36.489 25.737 0c13.377.489 24.07 11.487 24.07 24.983z" transform="translate(-155 -482) translate(30 482) translate(102) translate(23)"/>
                            <path fill="#500014" d="M44.427 25c0 10.729-8.698 19.427-19.427 19.427-3.737 0-7.227-1.056-10.189-2.884-1.29-.796-2.48-1.74-3.548-2.807-.784-.784-1.503-1.636-2.145-2.545-.883-1.252-1.623-2.613-2.194-4.06-.844-2.137-1.32-4.462-1.348-6.892-.003-.08-.003-.16-.003-.239C5.573 14.271 14.27 5.573 25 5.573c.08 0 .16 0 .24.003 2.43.028 4.754.505 6.892 1.348 1.446.572 2.807 1.31 4.059 2.194.909.643 1.76 1.36 2.545 2.145 1.067 1.067 2.01 2.257 2.807 3.548 1.828 2.962 2.884 6.452 2.884 10.189z" transform="translate(-155 -482) translate(30 482) translate(102) translate(23)"/>
                            <path fill="#22020A" d="M44.426 25c0 10.729-8.698 19.427-19.427 19.427-.368 0-.733-.01-1.096-.031C34.12 43.828 42.23 35.36 42.23 25c0-10.36-8.11-18.828-18.328-19.396.363-.02.728-.03 1.096-.03 10.73 0 19.427 8.697 19.427 19.426z" transform="translate(-155 -482) translate(30 482) translate(102) translate(23)"/>
                        </g>
                        <path fill="#22020A" d="M24.302 32.05L16.915 35.933 18.326 27.708 12.349 21.882 20.608 20.682 24.302 13.198 27.995 20.682 36.254 21.882 30.278 27.708 31.689 35.933z" transform="translate(-155 -482) translate(30 482) translate(102) translate(23)"/>
                        <path fill="#E7335F" d="M25.901 31.351L18.514 35.235 19.925 27.009 13.948 21.184 22.207 19.984 25.901 12.5 29.594 19.984 37.853 21.184 31.877 27.009 33.288 35.235z" transform="translate(-155 -482) translate(30 482) translate(102) translate(23)"/>
                    </g>
                </g>
            </g>
        </g>
    </g>
</svg>
