<svg xmlns="http://www.w3.org/2000/svg" width="170" height="150" viewBox="0 0 170 150">
    <defs>
        <filter id="n3ecc0ri6a">
            <feColorMatrix in="SourceGraphic" values="0 0 0 0 0.345098 0 0 0 0 0.000000 0 0 0 0 0.533333 0 0 0 1.000000 0"/>
        </filter>
    </defs>
    <g fill="none" fill-rule="evenodd">
        <g>
            <g>
                <g fill-rule="nonzero">
                    <path fill="#FF077C" d="M145.925 0l.56.02.598.046.487.048.332.011.195.01.607.04.564-.051c3.517-.296 6.75.243 9.66 1.652l.361.18.431.228.434.246.485.3.053.035c4.798 3.094 7.021 8.48 6.214 14.583-.228 1.727-.696 3.49-1.4 5.281l-.209.516-.752 1.767 3.354 4.115.269.411c3.498 5.354 1.84 12.522-3.721 15.731l-.227.128-.124.067-.582.294-.74.308-2.479.842-.227.081c-1.396.482-2.858.684-4.295.599l-1.426-.111-.913.635c-.46.3-1.023.602-1.62.859l-1.795.771.02 3.674c-.02 3.919-1.827 7.279-4.904 9.342l-.229.149-1.486.922.725 33.517v.27c-.042 4.767-3.045 9.047-7.57 10.756l-.389.14-.58.185-.613.15-4.748.996c-2.69.574-5.386.217-7.76-.963l-2.05-1.02-1.513 1.708-.243.266c-.495.522-1.046.995-1.651 1.415l-.288.192-11.853 2.706-.528.26c-1.208.578-2.61.977-4.15 1.162l-.405.043-.253.022-.566.037-1.585.14-.606.041-.604.028c-.542.019-1.081.014-1.62-.015-1.604-.088-3.07-.442-4.383-1.04l-1.953-.887-1.46 1.56c-3.143 3.356-7.247 5.31-11.928 5.654-2.699.199-5.28-.153-7.655-1.027l-1.754-.645-1.344 1.289-.252.235c-1.194 1.079-2.603 1.905-4.153 2.423l-.324.102-.318.092-2.9.629-2.295.482c-1.307.278-2.61.337-3.886.186l-.351-.046-1.038-.164-1.073.473-.219.09-.229.088-.34.122-.6.19-.603.15-4.926 1.03c-6.958 1.339-13.535-3.681-13.971-10.683l-.02-.385-.004-.527 1.493-37.41-3.601-7.474-3.037 3.492-.351.386-.036.037c-2.005 2.139-4.055 3.347-6.667 3.85-1.735.333-3.52.243-5.219-.27-3.877-1.176-6.968-3.862-8.379-7.473-1.255-3.206-.99-6.75.71-9.746l.879-1.523-.84-1.584C.14 54.75-.333 51.476.235 47.906l.067-.396.05-.274c.589-3.054 1.69-6.578 3.315-10.637.301-.75.611-1.498.938-2.259l.339-.778.409-.916.36-.786.354-.75.21-.397.306-.52.148-.218c3.037-4.536 8.593-6.247 13.827-4.547l1.389.45 1.207-.814.38-.248c1.018-.648 2.096-1.179 3.214-1.582l.1-.036 10.412.03 2.039.75 1.348-1.469.272-.286c.277-.283.568-.551.87-.804l.208-.169 19.929-5.3.27-.134c1.348-.67 2.873-1.088 4.553-1.232l.41-.03.403-.018.51-.01.25.002.265.004.61.02c.891.033 1.754.142 2.584.333l.94.216.982-.411.231-.088.161-.06.704-.23.656-.154 9.03-1.886c.438-.084.876-.143 1.315-.176l.208-.016 17.879-3.898h.332c1.09.016 2.162.177 3.181.475l1.321.386 1.15-.75.39-.245c.914-.56 1.872-1.028 2.86-1.396l.454-.162 12.49-1.998.296-.096.665-.157 9.03-1.887c.748-.143 1.5-.212 2.25-.208l.885.005.743-.475c1.671-1.07 3.534-1.629 5.545-1.67l.446-.004z" transform="translate(-95 -114) translate(95 114)"/>
                    <path fill="#FFF" d="M56.88 63.947l.143.005c1.03.164 1.803 1.006 1.88 2.037l.007.149-.777 46.217c.013 1.015-.666 1.907-1.643 2.183l-.142.036-4.555.963c-1.375.296-2.668-.709-2.725-2.088l-.001-.144 1.116-26.679-4.626.9-.452 26.928c.012.964-.6 1.817-1.5 2.137l-.144.046-.141.035-4.555.963c-1.375.297-2.668-.708-2.725-2.076l-.001-.155 1.963-46.914c.027-1.299.932-2.103 2.312-2.17l.167-.004 3.37-.271.142.005c1.03.164 1.803 1.005 1.883 2.038l.006.148-.191 11.35 4.83-1.038.51-12.156c.026-1.247.86-2.038 2.149-2.158l.163-.012.168-.004 3.37-.271zm27.523-4.33c.44.48.6.982.655 1.652l.027.457.055 1.09.05 1.188.034.968.035 1.332.03 1.76.011 1.512.001 1.628-.013 2.232-.015 1.46-.049 4.127-.03 3.277-.023 1.658-.031 1.536-.026.97-.048 1.401-.039.91-.021.443-.073 1.306-.055.85-.062.834-.068.817-.075.8-.08.785-.044.385-.09.759-.098.742-.105.724-.111.708-.119.691c-.02.114-.04.227-.062.34l-.13.665c-1.53 7.553-4.522 11.708-9.743 12.102-5.844.442-9.223-4.056-10.806-11.863-.492-2.432-.78-5.01-.941-7.87l-.07-1.479-.113-3.202-.04-.962-.027-1.05-.036-2.128-.027-2.646-.02-4.262-.006-3.286.001-2.762.014-5.238c.039-1.937.48-2.648 2.046-3.143l.329-.096.36-.092.828-.187c2.623-.586 4.647-.14 4.83 1.564l.015.23.056 2.92.17 10.753.071 3.567.123 5.475.043 1.66.051 1.572.057 1.41.029.608c.016.329.033.651.051.968l.056.93.062.892.068.855.036.414.077.798.083.76.044.365.093.703c.096.683.203 1.308.32 1.875.05.24.1.467.153.68l.107.41.055.19.112.357c.375 1.13.788 1.67 1.147 1.625.58-.074 1.08-.82 1.49-2.137l.104-.356.1-.382.096-.407.092-.431.088-.456.042-.237.081-.49.04-.255.074-.526.035-.272.068-.56.063-.581.059-.604.079-.945.047-.656.053-.866.078-1.658.167-4.375.036-.834.091-2.86.16-6.65.306-14.32c.081-2.076.73-2.847 3.363-3.28l.432-.066.229-.031c1.635-.214 2.766.077 3.438.812zm28.814-5.614l-.13 4.576-.287 12.287-.136 6.692-.074 4.165-.079 5.084-.057 4.63-.032 3.559-.023 4.26-.01.66-.012.4-.015.37-.031.504-.028.302-.016.141-.036.265c-.167 1.054-.512 1.506-1.23 1.785l-.179.064-.194.059-.21.054-.345.078-.369.073c-.116.021-.228.041-.337.059l-.32.047c-1.862.242-2.785-.234-3.53-2.243l-.122-.35c-.04-.12-.08-.246-.12-.377l-.119-.409-.15-.566-.264-1.124-2.587-11.47-.34-1.466-.29-1.242-.42-1.762-.21-.868.248 20.227.008.219.027.452c.12 1.937-.39 2.855-2.436 3.022l-.603.041-1.537.138-.414.03-.368.019c-.29.01-.546.01-.798-.004-1.289-.068-1.912-.959-2.045-2.302-.029-.286-.035-.578-.026-.911l.048-.97.88-45.67c.024-1.026.86-1.834 1.866-1.866h.132l.038.001.488.032c.61.047 1.344.131 2.076.263 1.66.298 2.755.724 3.14 1.488l.02.04.069.164.086.23.224.66.136.425.383 1.24.619 2.08.943 3.253.849 2.979 1.114 3.95.373 1.335.11-4.159.182-6.27.11-3.28.1-2.48.075-1.397.037-.518.022-.219.014-.107c.278-1.84 1.256-2.335 3.578-2.47 1.736-.101 2.546.497 2.534 2.098zm27.355-4.497l.015 3.617c-.009 1.21-.57 1.775-1.657 2.023l-5.127 1.1.805 41.028c.012.975-.606 1.837-1.515 2.16l-.146.047-.143.036-4.622.977c-1.392.3-2.7-.718-2.755-2.107l-.002-.14 1.078-40.435-2.12.455c-1.225.239-2.389-.514-2.585-1.68l-.018-.132-.01-.134.079-3.752c-.04-.998.674-1.882 1.68-2.14l13.853-3.234c1.621-.315 3.131.782 3.19 2.311zM17.71 34.504c1.158.404 1.992 1.377 1.88 2.54l-.02.147-.035.165-.052.192-.072.229-.096.274-.172.452-.165.415-.716 1.738-.68 1.635-.54 1.325-.333.843-.276.715-.228.606-.272.754-.165.479-.153.456-.203.642-.12.397-.104.372-.09.343-.077.315-.033.146-.054.268-.04.236-.023.202-.008.167c0 .125.015.21.049.255.063.084.233.16.559.235l.24.05.291.05.772.117c.887.143 1.364.278 1.908.577 1.19.65 2.014 1.745 2.312 3.07.406 1.803-.137 4.007-1.995 6.568l-1.625 2.232-.682.926-.605.81-.657.862-.455.578-.305.374-.187.223-.176.203-.236.259c-.662.706-1.07.934-1.523 1.022-.21.041-.423.033-.624-.028-1.022-.308-1.971-1.015-2.309-1.883-.234-.602-.173-1.239.169-1.809l.133-.212.099-.146.174-.24.22-.285.508-.63 1.085-1.318.57-.703.515-.65.334-.43.343-.45.178-.237c.256-.341.482-.665.68-.97l.222-.358.195-.337c.635-1.147.773-1.923.484-2.135-.157-.116-.341-.205-.632-.3l-.24-.072-.286-.076-.342-.085-.681-.162-.36-.095c-2.779-.773-4.026-2.482-3.304-6.196.503-2.59 1.51-5.665 2.835-8.962.375-.934.757-1.836 1.133-2.69l.367-.822.374-.814.214-.451.02-.036.053-.091c.642-.958 1.892-1.19 3.035-.79zm18.868.253c.042.128.086.289.133.473l.094.4.097.454.096.492.095.519.133.798.079.527.069.507.03.242.05.452c.041.429.06.778.043.989-.088 1.163-.93 1.627-2.208 1.755-.587.058-1.014.056-1.423-.06-.616-.174-1.026-.603-1.096-1.253l-.026-.49c-.014-.278-.033-.581-.058-.9-.045-.572-.103-1.13-.176-1.646-.11-.778-.245-1.414-.404-1.849l-.063-.156-.03-.068-.025-.047-.062.112c-.168.315-.356.787-.552 1.388-.08.249-.162.517-.244.803l-.162.593c-.27 1.026-.536 2.23-.778 3.535-.826 4.468-1.254 9.393-1.069 13.38l.032.579.038.533c.07.852.169 1.515.292 1.996.045.176.09.316.13.423l.055.136.043.09.136-.16c.18-.215.38-.543.586-.954l.088-.18.076-.16.111-.25.075-.174.074-.178.095-.238.18-.478c.084-.236.161-.464.225-.668l.09-.3c.036-.133.071-.27.105-.409l.026-.115.055-.276.119-.69.338-2.19.058-.328c.01-.055.02-.096.028-.122.16-.526.58-.878 1.16-1.112.35-.142.687-.22 1.107-.287 1.337-.211 2.988.033 3.127 1.216.043.374.035.887-.018 1.486l-.05.464c-.047.4-.111.827-.191 1.271l-.104.54-.118.55-.131.555-.144.556c-.553 2.034-1.354 3.98-2.267 4.755-2.597 2.203-7.125 1.988-9.299-.883-3.726-4.923-2.913-20.524 1.483-26.093l.16-.197c3.374-4.008 8.589-3.05 9.687.342zm12.91-6.587l.432.087c.14.03.256.062.362.103l.049.021.728.208c1.685.48 2.497.968 2.719 2.108.013.067.023.134.03.213l.02.356.036 1.002.128 5.55c.085 2.6.24 5.006.507 7.431l.19 1.699.653 5.554.42 3.42.011.129c.059 1.016-.788 1.812-2.214 2.089-1.6.263-2.636-.4-2.904-1.782l-.03-.186-.16-1.384-.458-4.348-.378-3.757-.1-1.034-1.69 1.434-.045.221c-.063.318-.125.644-.18.959l-.105.595-.19 1.04-.302 1.579-1.343 6.704c-.22 1.316-.708 2.043-1.573 2.211-.477.093-.958.008-1.723-.235-.765-.236-1.205-.676-1.352-1.432-.084-.43-.078-.96.02-1.757l.057-.421.034-.23.163-.981 1.12-6.095c.117-.656.25-1.346.396-2.07l.23-1.108.25-1.155.134-.595.281-1.223.15-.636.313-1.3.344-1.39.359-1.417.359-1.386.365-1.377.375-1.389.39-1.423.628-2.243.223-.788c.21-.743.928-1.41 1.698-1.56.175-.034.351-.041.573-.011zm18.869-4.227l.516.016c.509.017 1.01.112 1.427.323.661.336 1.013.938.868 1.724l-.099.52-.173.867-.605 2.887-.656 3.037-.971 4.389-.605 2.672-.822 3.558-.41 1.735-.573 2.373-.437 1.748-.32 1.236-.29 1.082-.19.677-.132.457-.124.406-.114.354c-.036.11-.071.21-.104.303-1.023 2.847-2.467 3.304-4.464 2.214l-.144-.08-.274-.162-.598-.365c-.504-.299-.9-.928-1.23-1.941l-.102-.333-.098-.358c-.032-.124-.063-.252-.094-.385l-.09-.41-.088-.439-.042-.229-.083-.479-.08-.506-.078-.535-.077-.564-.11-.899-.109-.966-.106-1.032-.143-1.5-.727-8.187-.753-8.75c.01-.192.076-.44.248-.7.414-.625 1.221-.953 2.428-.862l.165.014.313.032c1.553.187 2.156.691 2.489 2.254l.06.316.057.344.05.372.048.403.046.433.225 2.48.476 5.519.394 4.658 1.915-10.513.844-4.546.408-2.097.013-.065c.402-1.866 1.052-2.425 2.61-2.493l.337-.008.178.001zm20.117-.903l.002.121-.051 1.692c-.006.817-.406 1.23-1.112 1.403l-6.099 1.3-.021 3.366 4.813-1.132c1.034-.2 2.008.462 2.133 1.426l.011.122.002.125-.022 1.854c-.006.817-.406 1.23-1.11 1.402l-5.86 1.268-.073 11.85 6.282-1.457c1.034-.201 2.009.462 2.133 1.426l.011.122.002.125-.022 1.854c-.006.817-.406 1.229-1.11 1.402l-8.49 1.823c-.086.016-.17.025-.257.027l-.047-.001-.065.014c-.212.035-.429.032-.642-.008l-.159-.038-.156-.052-1.623-.62c-.674-.258-1.125-.881-1.164-1.585l-.003-.142.511-25.876.003-.102-.003.044.002-.086.013-.13.026-.118.035-.117c.144-.43.485-.773.92-.936l.134-.044.117-.028 8.794-1.857c1.08-.21 2.093.521 2.145 1.563zm17.155-4.075l-.096 3.527-.09 3.772-.103 4.74-.093 5.163-.053 3.72-.03 2.941-.013 2.556-.006.397-.016.526-.019.307-.025.275c-.102.91-.352 1.27-.964 1.485l-.185.058-.205.053-.228.048-.122.024c-1.7.32-2.394-.07-2.964-2.153l-.136-.536-1.715-7.582-.123-.528.122 9.735.014.247c.082 1.293-.26 1.955-1.611 2.077l-.45.033-.763.07-.348.025-.297.013c-.14.003-.268.001-.396-.005-.901-.048-1.34-.675-1.429-1.568-.017-.167-.021-.337-.017-.525l.01-.241.018-.365.516-26.777c.018-.722.598-1.292 1.275-1.331h.178l.183.01c.385.027.868.08 1.352.166 1.053.19 1.74.457 2.016 1.002l.037.083.073.19.093.268.154.48.243.788.43 1.454.928 3.236.442 1.568.102-3.58.105-3.168.061-1.436.035-.606.027-.317.012-.101c.185-1.228.863-1.57 2.327-1.656 1.138-.066 1.738.373 1.744 1.438zm17.532-.915c.266.766.417 2.136.468 3.48l.016.617c.01.712-.007 1.388-.05 1.931-.086 1.062-.86 1.529-2.04 1.717l-.33.045c-1.483.167-2.618-.35-2.6-1.474l.046-1.714.01-.682v-.37c-.008-.927-.063-1.653-.177-2.152-.018-.082-.038-.155-.059-.22l-.038-.11-.062.11c-.167.311-.355.777-.552 1.37-.407 1.23-.827 2.938-1.195 4.873-.839 4.417-1.286 9.289-1.122 13.234.022.526.053.999.091 1.42l.05.48c.054.456.119.837.194 1.145.058.239.121.426.184.56l.045.086.048-.046.047-.05c.172-.194.367-.499.57-.887l.086-.171.156-.328.117-.26c.16-.368.314-.766.445-1.133l.143-.421c.043-.133.081-.257.113-.368.057-.202.109-.406.156-.619l.069-.325.041-.22-.454.115c-.832.19-1.65-.292-1.836-1.067l-.023-.113-.013-.117-.14-2.05c-.05-.692.415-1.318 1.068-1.524l6.253-1.735c1.084-.246 2.133.46 2.218 1.501l.006.122.037 1.885c.02.825-.37 1.254-1.074 1.45l-.345.087-.034.23c-.47 3.064-1.587 6.415-3.063 7.992l-.154.157-.156.143c-2.652 2.302-7.183 1.833-9.325-1.582-2.95-4.703-2.21-19.755 2.192-25.233l.175-.211c3.441-3.996 8.563-3.132 9.798.432zm16.884-5.035l.001.122-.05 1.692c-.007.817-.407 1.23-1.112 1.403l-6.099 1.3-.021 3.366 4.812-1.132c1.035-.201 2.01.461 2.134 1.426l.011.122.002.125-.022 1.854c-.006.817-.406 1.229-1.11 1.402l-5.86 1.268-.073 11.85 6.282-1.457c1.034-.201 2.008.461 2.133 1.426l.011.122.002.125-.022 1.854c-.006.816-.406 1.229-1.11 1.402l-8.49 1.822c-.086.017-.17.026-.257.027h-.047l-.066.014c-.211.035-.428.032-.641-.009l-.159-.037-.157-.052-1.622-.62c-.674-.258-1.126-.882-1.165-1.586l-.002-.142.511-25.876.003-.098-.003.04.002-.086.013-.13.026-.117.035-.118c.144-.429.485-.772.92-.935l.134-.044.117-.028 8.794-1.857c1.079-.21 2.093.52 2.145 1.562zM49.326 39.193l-.334 1.688.382-.242-.048-1.446zM145.77 9.257l.215.008.262.019.505.049c.184.019.336.03.482.034l.144.002c.317-.002.603.032.86.101l.188.059.082.033.128-.025c2.434-.444 4.644-.295 6.441.672l.232.13.227.14c3.223 2.077 2.798 7.77-2.273 14.429l-.227.294-.165.209 7.304 8.973c.58.89.314 2.052-.575 2.544l-.115.058-.12.05-2.322.794c-.78.307-1.32.092-1.738-.485l-.077-.113-5.848-7.926-.533.527.009.888c.02 1.509.06 2.995.124 4.457l.052 1.092.06 1.083c.111 1.823-.564 2.802-1.904 2.989l-.45.053-.72.1c-.587.073-1.006.088-1.37.018-.567-.11-.963-.454-1.013-1.01l-.004-.22.062-4.923.067-4.822.112-6.974.104-5.302.056-2.295.07-2.323.02-.497c.061-1.409.28-2.18.81-2.588l.136-.099c.212-.147.378-.203.702-.203zm5.538 4.148l-.322.134c-.056.025-.114.05-.173.078l-.37.175-.405.203-.439.23-.174.093-.023.288c-.049.608-.096 1.237-.14 1.885l-.087 1.32c-.04.672-.079 1.361-.114 2.065l-.06 1.32.014-.015c1.553-1.752 2.74-3.581 3.33-5.384l.094-.3.104-.373.084-.335.065-.3c.187-.941.075-1.31-.17-1.351-.255-.042-.654.044-1.214.267z" transform="translate(-95 -114) translate(95 114)"/>
                </g>
                <g filter="url(#n3ecc0ri6a)" transform="translate(-95 -114) translate(95 114)">
                    <g>
                        <g>
                            <g>
                                <path fill="#FFF" d="M4.849.597c-1.051.445-1.935 1.067-2.652 1.844C1.481 3.218.934 4.116.56 5.116.188 6.11.002 7.146 0 8.206c.002 1.059.191 2.038.56 2.932.374.898.92 1.654 1.637 2.279.717.624 1.6 1.082 2.652 1.401.54.164 1.09.274 1.677.335.11-.543.214-1.087.284-1.637.064-.496.105-1.006.087-1.51v-.018c-.034-.93-.268-1.833-.946-2.562-.49-.526-1.101-.933-1.7-1.34-.257-.175-.518-.353-.77-.542l-.124-.097c-.082-.064-.163-.13-.242-.199-.04-.034-.079-.068-.117-.103-.116-.105-.226-.215-.33-.33-.103-.116-.2-.237-.288-.365-.196-.285-.342-.607-.397-.944l-.012-.085-.007-.074v-.06-.006.001c.009-.203.136-.356.376-.244.173.08.293.239.432.367.226.207.52.335.817.413 1.2.314 2.546-.131 3.62.579.273.18.443.402.625.635l.033.043c.056.07.162.185.29.201h.006c.005 0 .013 0 .02-.003.005 0 .01.003.019.003h.005c.128-.016.234-.131.29-.2l.034-.044c.18-.233.351-.455.624-.635 1.074-.71 2.42-.268 3.62-.579.3-.078.59-.209.817-.413.14-.128.259-.286.432-.367.095-.043.215-.059.295.006.046.038.07.092.083.154.008.043.012.087.013.132v.034l-.001.035-.003.034-.004.034-.004.035-.006.034-.007.036-.007.034-.009.035-.01.035-.01.035-.011.037-.01.032-.025.065-.011.03-.016.038-.013.031-.016.037-.014.03-.017.035-.014.03-.018.035-.014.027-.02.036-.013.024-.021.039-.01.019-.033.055c-.052.086-.108.17-.168.25-.06.082-.124.16-.19.236-.05.057-.103.111-.156.165-.09.09-.183.178-.28.262-.069.06-.14.118-.212.175l-.133.102-.086.065c-.412.303-.85.58-1.27.874-.211.147-.418.3-.615.461-.198.162-.387.334-.56.522-.578.622-.835 1.37-.918 2.155l-.01.1-.007.091c-.043.579.003 1.172.075 1.747.066.52.163 1.025.267 1.531.717-.112 1.372-.284 2.008-.52 1.051-.39 1.94-.883 2.668-1.502.728-.619 1.28-1.332 1.654-2.157.372-.825.559-1.707.56-2.665-.001-.957-.188-1.896-.56-2.82-.374-.926-.926-1.781-1.654-2.556-.727-.772-1.617-1.429-2.668-1.943C10.772.372 9.673.072 8.32.01 8.169.003 8.02 0 7.876 0 6.743 0 5.78.203 4.849.597" transform="translate(45.89 133.004) translate(20.412 1.454)"/>
                                <path fill="#0C0C0C" d="M12.057 7.611c-.6.373-1.154.692-1.645 1.174-.73.718-.967 1.99-.94 2.985l.008-.093.01-.1c.083-.784.34-1.532.917-2.154.174-.188.363-.36.56-.522.198-.162.405-.314.616-.46.42-.296.858-.572 1.27-.875l.086-.065c.044-.033.09-.067.133-.102.072-.057.143-.115.213-.175.096-.084.19-.171.28-.262.052-.054.105-.108.154-.165.067-.076.131-.154.191-.235.06-.081.116-.165.168-.251l.032-.055.01-.02.022-.038.014-.024.019-.036.014-.027.018-.036.014-.029.017-.035.014-.03.016-.037.013-.03.016-.04.011-.029c.009-.021.017-.043.024-.065l.01-.032.013-.037.01-.035.009-.035.009-.035.007-.034.007-.036.005-.034.005-.035.004-.034.003-.034v-.035l.001-.032V5.33c-.245.998-1.47 1.733-2.358 2.281M6.901 12.062c.087-1.025-.12-2.486-.923-3.277-.49-.482-1.045-.801-1.645-1.174-.902-.557-2.153-1.306-2.37-2.329v.006l.001.059.007.074.012.085c.055.337.201.659.397.944.088.128.185.249.289.364.103.116.213.226.329.33.038.036.077.07.117.104.079.068.16.135.242.2l.125.096c.25.19.512.367.768.542.6.407 1.21.814 1.701 1.34.678.729.912 1.632.946 2.562v.039l.004.035" opacity=".142" transform="translate(45.89 133.004) translate(20.412 1.454)"/>
                            </g>
                            <path fill="#FFF" d="M49.256 5.177c.142 0 .253.103.253.234v4.381c0 .152-.097.246-.253.246s-.253-.094-.253-.246v-4.38c0-.132.111-.235.253-.235zm-12.364 0c.142 0 .253.103.253.234v4.381c0 .152-.097.246-.253.246s-.253-.094-.253-.246v-4.38c0-.132.111-.235.253-.235zm-7.23.001c.12-.028.245.03.301.14l.005.01 1.319 3.2V5.41c0-.131.11-.234.252-.234.142 0 .253.103.253.234v4.381c0 .126-.078.22-.203.243l-.013.003h-.037c-.111 0-.204-.063-.234-.158l-1.327-3.198v3.11c0 .152-.097.246-.253.246-.155 0-.252-.094-.252-.246v-4.38c0-.114.076-.208.188-.234zm-6.08-.001c.745 0 1.155.479 1.155 1.349v2.163c0 .496-.124.85-.379 1.084-.258.238-.566.265-.776.265-.326 0-.583-.09-.766-.266-.253-.234-.377-.588-.377-1.083V6.526c0-.87.406-1.35 1.143-1.35zm19.353 0c.829 0 1.232.44 1.232 1.349 0 .445-.097.784-.289 1.007-.042.047-.085.087-.132.123.027.022.053.045.08.07.233.228.352.534.352.909l-.011 1.159c0 .15-.097.244-.253.244-.135 0-.241-.108-.241-.246V8.624c0-.483-.256-.739-.738-.739h-.493v1.907c0 .152-.097.246-.253.246-.135 0-.241-.108-.241-.246v-4.38c0-.13.108-.235.241-.235zm11.482.023c.126-.06.25-.022.324.097l.007.013.829 1.714.832-1.72c.043-.07.106-.114.177-.128.057-.01.114 0 .162.028.06.029.107.08.128.142.022.06.015.127-.016.183l-1.004 2.078 1.004 2.079c.031.056.038.122.016.183-.02.059-.065.11-.123.138-.045.031-.092.031-.119.031-.11 0-.201-.06-.233-.153l-.824-1.706-.83 1.718c-.047.09-.13.141-.227.141-.07 0-.114-.019-.14-.044-.103-.066-.14-.18-.092-.296l.004-.008 1.017-2.083-1.02-2.09c-.025-.059-.026-.123-.004-.182.024-.06.071-.11.132-.135zm-30.835.457c-.315 0-.637.103-.637.869v2.163c0 .765.322.868.637.868.562 0 .638-.439.638-.868V6.526c0-.764-.306-.869-.638-.869zm19.342-.01h-.493v1.747h.493c.46 0 .726-.144.726-.88 0-.632-.197-.868-.726-.868z" transform="translate(45.89 133.004) translate(20.412 1.454)"/>
                        </g>
                        <text fill="#FFF" font-family="SourceSansPro-Bold, Source Sans Pro" font-size="13.326" font-weight="bold" transform="translate(45.89 133.004)">
                            <tspan x=".413" y="13">by</tspan>
                        </text>
                    </g>
                </g>
            </g>
        </g>
    </g>
</svg>
