<svg xmlns="http://www.w3.org/2000/svg" width="50" height="50" viewBox="0 0 50 50">
    <g fill="none" fill-rule="evenodd">
        <g>
            <g>
                <g>
                    <g>
                        <g fill-rule="nonzero">
                            <path fill="#F0CD00" d="M50 25c0 13.807-11.193 25-25 25-7.279 0-13.83-3.11-18.399-8.074-1.2-1.304-2.262-2.735-3.166-4.27C1.252 33.942 0 29.616 0 25 0 11.193 11.193 0 25 0c4.618 0 8.944 1.252 12.655 3.436 1.536.903 2.966 1.965 4.27 3.166C46.888 11.168 50 17.722 50 25z" transform="translate(-257 -482) translate(30 482) translate(204) translate(23)"/>
                            <path fill="#FFDE50" d="M50 25c0 13.496-10.693 24.494-24.07 24.983C12.555 49.493 1.862 38.496 1.862 25S12.554.506 25.931.017C39.307.507 50 11.504 50 25z" transform="translate(-257 -482) translate(30 482) translate(204) translate(23)"/>
                            <path fill="#FFEA94" d="M41.924 6.602L6.601 41.926c-1.2-1.304-2.262-2.735-3.166-4.27l34.22-34.22c1.536.903 2.966 1.965 4.27 3.166zM48.276 15.86L15.859 48.277c-2.295-.903-4.424-2.134-6.33-3.637L44.64 9.53c1.504 1.905 2.735 4.034 3.637 6.33z" transform="translate(-257 -482) translate(30 482) translate(204) translate(23)"/>
                            <path fill="#FAA300" d="M44.427 25c0 10.729-8.698 19.427-19.427 19.427-3.737 0-7.227-1.056-10.189-2.884-1.29-.796-2.48-1.74-3.548-2.807-.784-.784-1.503-1.636-2.145-2.545-.883-1.252-1.623-2.613-2.194-4.06-.844-2.137-1.32-4.462-1.348-6.892-.003-.08-.003-.16-.003-.239C5.573 14.271 14.27 5.573 25 5.573c.08 0 .16 0 .24.003 2.43.028 4.754.505 6.892 1.348 1.446.572 2.807 1.31 4.059 2.194.909.643 1.76 1.36 2.545 2.145 1.067 1.067 2.01 2.257 2.807 3.548 1.828 2.962 2.884 6.452 2.884 10.189z" transform="translate(-257 -482) translate(30 482) translate(204) translate(23)"/>
                            <path fill="#FFBD00" d="M38.736 11.263L11.263 38.736c-.784-.784-1.503-1.636-2.145-2.545-.883-1.252-1.623-2.613-2.194-4.06-.844-2.137-1.32-4.462-1.348-6.892-.003-.08-.003-.16-.003-.239C5.573 14.271 14.27 5.573 25 5.573c.08 0 .16 0 .24.003 2.43.028 4.754.505 6.892 1.348 1.446.572 2.807 1.31 4.059 2.194.909.643 1.76 1.36 2.545 2.145z" transform="translate(-257 -482) translate(30 482) translate(204) translate(23)"/>
                            <path fill="#F68E00" d="M44.426 25c0 10.729-8.698 19.427-19.427 19.427-.368 0-.733-.01-1.096-.031C34.12 43.828 42.23 35.36 42.23 25c0-10.36-8.11-18.828-18.328-19.396.363-.02.728-.03 1.096-.03 10.73 0 19.427 8.697 19.427 19.426z" transform="translate(-257 -482) translate(30 482) translate(204) translate(23)"/>
                        </g>
                        <path fill="#F68E00" d="M23.333 34.167L14.517 38.802 16.2 28.984 9.067 22.031 18.925 20.599 23.333 11.667 27.742 20.599 37.599 22.031 30.466 28.984 32.15 38.802z" transform="translate(-257 -482) translate(30 482) translate(204) translate(23)"/>
                        <path fill="#FFEA94" d="M25 33.333L16.183 37.969 17.867 28.151 10.734 21.198 20.592 19.766 25 10.833 29.408 19.766 39.266 21.198 32.133 28.151 33.817 37.969z" transform="translate(-257 -482) translate(30 482) translate(204) translate(23)"/>
                    </g>
                </g>
            </g>
        </g>
    </g>
</svg>
