<svg xmlns="http://www.w3.org/2000/svg" width="100" height="100" viewBox="0 0 100 100">
    <g fill="none" fill-rule="evenodd">
        <g fill="#580088" fill-rule="nonzero">
            <g>
                <g>
                    <path d="M11.365 20.097l1.41 3.673c.054.138.191.23.344.23.154 0 .29-.092.344-.23l1.41-3.673c1.143-2.973 3.584-5.317 6.681-6.413l3.826-1.354c.144-.051.24-.183.24-.33 0-.147-.096-.279-.24-.33l-3.826-1.355c-3.097-1.096-5.538-3.44-6.68-6.413L13.463.23c-.053-.138-.19-.23-.344-.23-.153 0-.29.092-.343.23l-1.411 3.672c-1.142 2.973-3.583 5.317-6.68 6.413L.858 11.67c-.144.051-.24.183-.24.33 0 .147.096.279.24.33l3.825 1.354c3.097 1.096 5.539 3.44 6.68 6.413zM41.556 97.236l1.016 2.601c.038.098.137.163.247.163.11 0 .21-.065.248-.163l1.015-2.601c.823-2.106 2.58-3.767 4.81-4.543l2.755-.96c.103-.036.172-.129.172-.233 0-.104-.069-.198-.172-.234l-2.755-.96c-2.23-.776-3.987-2.436-4.81-4.542l-1.015-2.601c-.039-.098-.137-.163-.248-.163-.11 0-.209.065-.247.163l-1.016 2.601c-.822 2.106-2.58 3.766-4.81 4.543l-2.754.96c-.104.035-.173.129-.173.233 0 .104.069.197.173.233l2.754.96c2.23.776 3.988 2.436 4.81 4.543zM92.588 31.886l.733 1.99c.028.074.1.124.18.124.079 0 .15-.05.178-.125l.733-1.989c.594-1.61 1.864-2.88 3.474-3.474l1.99-.734c.074-.027.124-.098.124-.178 0-.08-.05-.151-.124-.179l-1.99-.733c-1.61-.594-2.88-1.864-3.474-3.474l-.733-1.99c-.028-.074-.1-.124-.179-.124-.08 0-.151.05-.179.124l-.733 1.99c-.594 1.61-1.864 2.88-3.474 3.474l-1.99.733c-.074.028-.124.1-.124.179 0 .08.05.15.124.178l1.99.734c1.61.594 2.88 1.863 3.474 3.474z" transform="translate(-30 -345) translate(30 345) matrix(-1 0 0 1 100 0)"/>
                    <path d="M10.697 34.051l-1.653-.609c-1.338-.493-2.393-1.548-2.886-2.886l-.61-1.653c-.023-.062-.082-.103-.148-.103-.066 0-.126.041-.149.103l-.609 1.653c-.493 1.338-1.548 2.393-2.886 2.886l-1.653.61c-.062.022-.103.082-.103.148 0 .066.041.125.103.148l1.653.61c1.338.493 2.393 1.548 2.886 2.886l.61 1.653c.022.062.082.103.148.103.066 0 .125-.041.148-.103l.61-1.653c.493-1.338 1.548-2.393 2.886-2.886l1.653-.61c.062-.023.103-.082.103-.148 0-.066-.041-.126-.103-.149z" transform="translate(-30 -345) translate(30 345) matrix(-1 0 0 1 100 0)"/>
                </g>
            </g>
        </g>
    </g>
</svg>
